# xmcd
#
# Track frame offsets:
#	150
#	21153
#	39644
#	56329
#	74558
#	94423
#	116178
#	136881
#	158223
#	173564
#	188689
#	206992
#	229045
#	250724
#	266958
#	284099
#	306152
#
# Disc length: 4327 seconds
#
# Revision: 1
# Processed by: cddbd v1.5.2PL0 Copyright (c) Steve Scherf et al.
# Submitted via: audiograbber 1.83.01
#
DISCID=0210e511
DTITLE=Ty Juan - No Regrets
DYEAR=2014
DGENRE=R&B
TTITLE0=Bad Boy
TTITLE1=Sex
TTITLE2=Walk Away
TTITLE3=Rejection
TTITLE4=Kelly Rowland
TTITLE5=Been Here Before
TTITLE6=Let's do It
TTITLE7=Beautiful 1
TTITLE8=Lifted
TTITLE9=Smile
TTITLE10=Starin Atcha
TTITLE11=Husband
TTITLE12=Handle My Business
TTITLE13=I Will FullFill
TTITLE14=Over And Over
TTITLE15=All The Way
TTITLE16=Since You've Come Around
EXTD=
EXTT0=
EXTT1=
EXTT2=
EXTT3=
EXTT4=
EXTT5=
EXTT6=
EXTT7=
EXTT8=
EXTT9=
EXTT10=
EXTT11=
EXTT12=
EXTT13=
EXTT14=
EXTT15=
EXTT16=
PLAYORDER=
